/* XPM */
static char * exit_xpm[] = {
"32 32 5 1",
" 	c None",
".	c grey40",
"X	c #FFFFFFFFE38D",
"o	c DarkGoldenrod2",
"O	c #B2CAB2CAB2CA",
"                                ",
"                                ",
"                                ",
"     ...................        ",
"     ...............Xo..        ",
"     ..OOOOOOOOOOOOXoo..        ",
"     ..OOOOOOOOOOOXooo..        ",
"     ..OOOOOOOOOOXoooo..        ",
"     ..OOOOOOOOOXooooo..        ",
"     ..OOOOOOOOXoooooo..        ",
"     ..OOOOOOOXooooooo..        ",
"     ..OOOOOOOXooooooo..        ",
"     ..OOOOOOOXooooooo..        ",
"     ..OOOOOOOXooooooo..        ",
"     ..OOOOOOOXooooooo..        ",
"     ..OOOOOOOXooooooo..        ",
"     ..OOOOOOOXooooooo..        ",
"     ..OOOOOOOXoo.oooo..        ",
"     ..OOOOOOOXo.ooooo..        ",
"     ..OOOOOOOXooooooo..        ",
"     ..OOOOOOOXooooooo..        ",
"     ..OOOOOOOXooooooo..        ",
"......OOOOOOOOXooooooo..........",
"              Xooooooo.         ",
"              Xoooooo.          ",
"              Xooooo.           ",
"              Xoooo.            ",
"              Xooo.             ",
"              Xoo.              ",
"              Xo.               ",
"              X.                ",
"              .                 "};
